<svg width="24" height="24" viewBox="0 0 24 24" fill="none" xmlns="http://www.w3.org/2000/svg">
<path d="M9.12494 21.1L0.699942 12.7C0.599942 12.6 0.528942 12.4917 0.486942 12.375C0.444942 12.2584 0.424276 12.1334 0.424942 12C0.424942 11.8667 0.445942 11.7417 0.487942 11.625C0.529942 11.5084 0.600609 11.4 0.699942 11.3L9.12494 2.87502C9.35828 2.64169 9.64994 2.52502 9.99994 2.52502C10.3499 2.52502 10.6499 2.65002 10.8999 2.90002C11.1499 3.15002 11.2749 3.44169 11.2749 3.77502C11.2749 4.10836 11.1499 4.40002 10.8999 4.65002L3.54994 12L10.8999 19.35C11.1333 19.5834 11.2499 19.871 11.2499 20.213C11.2499 20.555 11.1249 20.8507 10.8749 21.1C10.6249 21.35 10.3333 21.475 9.99994 21.475C9.66661 21.475 9.37494 21.35 9.12494 21.1Z" fill="white"/>
</svg>
