<svg width="60" height="60" viewBox="0 0 60 60" fill="none" xmlns="http://www.w3.org/2000/svg">
<path d="M12.5 55C11.125 55 9.9475 54.5108 8.9675 53.5325C7.98917 52.5525 7.5 51.375 7.5 50V15C7.5 13.625 7.98917 12.4483 8.9675 11.47C9.9475 10.49 11.125 10 12.5 10H15V5H20V10H40V5H45V10H47.5C48.875 10 50.0525 10.49 51.0325 11.47C52.0108 12.4483 52.5 13.625 52.5 15V50C52.5 51.375 52.0108 52.5525 51.0325 53.5325C50.0525 54.5108 48.875 55 47.5 55H12.5ZM12.5 50H47.5V25H12.5V50ZM12.5 20H47.5V15H12.5V20ZM30 35C29.2917 35 28.6983 34.76 28.22 34.28C27.74 33.8017 27.5 33.2083 27.5 32.5C27.5 31.7917 27.74 31.1975 28.22 30.7175C28.6983 30.2392 29.2917 30 30 30C30.7083 30 31.3025 30.2392 31.7825 30.7175C32.2608 31.1975 32.5 31.7917 32.5 32.5C32.5 33.2083 32.2608 33.8017 31.7825 34.28C31.3025 34.76 30.7083 35 30 35ZM20 35C19.2917 35 18.6975 34.76 18.2175 34.28C17.7392 33.8017 17.5 33.2083 17.5 32.5C17.5 31.7917 17.7392 31.1975 18.2175 30.7175C18.6975 30.2392 19.2917 30 20 30C20.7083 30 21.3025 30.2392 21.7825 30.7175C22.2608 31.1975 22.5 31.7917 22.5 32.5C22.5 33.2083 22.2608 33.8017 21.7825 34.28C21.3025 34.76 20.7083 35 20 35ZM40 35C39.2917 35 38.6983 34.76 38.22 34.28C37.74 33.8017 37.5 33.2083 37.5 32.5C37.5 31.7917 37.74 31.1975 38.22 30.7175C38.6983 30.2392 39.2917 30 40 30C40.7083 30 41.3017 30.2392 41.78 30.7175C42.26 31.1975 42.5 31.7917 42.5 32.5C42.5 33.2083 42.26 33.8017 41.78 34.28C41.3017 34.76 40.7083 35 40 35ZM30 45C29.2917 45 28.6983 44.76 28.22 44.28C27.74 43.8017 27.5 43.2083 27.5 42.5C27.5 41.7917 27.74 41.1983 28.22 40.72C28.6983 40.24 29.2917 40 30 40C30.7083 40 31.3025 40.24 31.7825 40.72C32.2608 41.1983 32.5 41.7917 32.5 42.5C32.5 43.2083 32.2608 43.8017 31.7825 44.28C31.3025 44.76 30.7083 45 30 45ZM20 45C19.2917 45 18.6975 44.76 18.2175 44.28C17.7392 43.8017 17.5 43.2083 17.5 42.5C17.5 41.7917 17.7392 41.1983 18.2175 40.72C18.6975 40.24 19.2917 40 20 40C20.7083 40 21.3025 40.24 21.7825 40.72C22.2608 41.1983 22.5 41.7917 22.5 42.5C22.5 43.2083 22.2608 43.8017 21.7825 44.28C21.3025 44.76 20.7083 45 20 45ZM40 45C39.2917 45 38.6983 44.76 38.22 44.28C37.74 43.8017 37.5 43.2083 37.5 42.5C37.5 41.7917 37.74 41.1983 38.22 40.72C38.6983 40.24 39.2917 40 40 40C40.7083 40 41.3017 40.24 41.78 40.72C42.26 41.1983 42.5 41.7917 42.5 42.5C42.5 43.2083 42.26 43.8017 41.78 44.28C41.3017 44.76 40.7083 45 40 45Z" fill="white"/>
</svg>
